<svg xmlns="http://www.w3.org/2000/svg" width="2152" height="438" viewBox="0 0 2152 438" font-family="Helvetica,Arial,sans-serif"><rect width="2152" height="438" fill="#0b0e16"/><text x="1076.0" y="34" font-size="24" font-weight="bold" fill="#e6f0ff" text-anchor="middle">The Watch screen — meters &amp; scope</text><rect x="28" y="58" width="672" height="352" rx="16" fill="#1c1f26" stroke="#3a3f4b" stroke-width="2"/><g transform="translate(44,74) scale(5)" shape-rendering="crispEdges"><rect x="0" y="0" width="128" height="64" fill="#FF9810"/><rect x="0" y="0" width="128" height="11" fill="#0c0a07"/><text x="2" y="9" font-size="9" font-weight="bold" fill="#FF9810" font-family="Helvetica,Arial,sans-serif">CERBERUS</text><text x="126" y="9" font-size="7" fill="#FF9810" text-anchor="end" font-family="monospace">HOP</text><circle cx="105" cy="5" r="2" fill="#FF9810"/><polygon points="0,14 3,17 0,20" fill="#0c0a07"/><text x="6" y="21" font-size="8" fill="#0c0a07" font-family="monospace">433</text><rect x="23" y="13" width="72" height="9" fill="none" stroke="#0c0a07" stroke-width="0.8"/><rect x="24" y="14" width="11.5" height="7" fill="#0c0a07"/><text x="127" y="21" font-size="7" fill="#0c0a07" text-anchor="end" font-family="monospace">-96</text><text x="6" y="33" font-size="8" fill="#0c0a07" font-family="monospace">868</text><rect x="23" y="25" width="72" height="9" fill="none" stroke="#0c0a07" stroke-width="0.8"/><rect x="24" y="26" width="15.6" height="7" fill="#0c0a07"/><text x="127" y="33" font-size="7" fill="#0c0a07" text-anchor="end" font-family="monospace">-91</text><text x="6" y="45" font-size="8" fill="#0c0a07" font-family="monospace">915</text><rect x="23" y="37" width="72" height="9" fill="none" stroke="#0c0a07" stroke-width="0.8"/><rect x="24" y="38" width="19.8" height="7" fill="#0c0a07"/><text x="127" y="45" font-size="7" fill="#0c0a07" text-anchor="end" font-family="monospace">-86</text><line x1="0" y1="50" x2="127" y2="50" stroke="#0c0a07" stroke-width="0.8"/><text x="2" y="61" font-size="7" fill="#0c0a07" font-family="monospace">UP 02:14</text><text x="127" y="61" font-size="7" fill="#0c0a07" text-anchor="end" font-family="monospace">433 0b/s</text></g><text x="364.0" y="430" font-size="18" fill="#9fb4c8" text-anchor="middle" font-family="Helvetica,Arial,sans-serif">Meters - calm, hopping</text><rect x="740" y="58" width="672" height="352" rx="16" fill="#1c1f26" stroke="#3a3f4b" stroke-width="2"/><g transform="translate(756,74) scale(5)" shape-rendering="crispEdges"><rect x="0" y="0" width="128" height="64" fill="#FF9810"/><rect x="0" y="0" width="128" height="11" fill="#0c0a07"/><text x="2" y="9" font-size="9" font-weight="bold" fill="#FF9810" font-family="Helvetica,Arial,sans-serif">CERBERUS</text><text x="126" y="9" font-size="7" fill="#FF9810" text-anchor="end" font-family="monospace">PIN 433</text><circle cx="85" cy="5" r="2" fill="#FF9810"/><rect x="0" y="12" width="128" height="12" fill="#0c0a07"/><polygon points="0,14 3,17 0,20" fill="#FF9810"/><text x="6" y="21" font-size="8" fill="#FF9810" font-family="monospace">433</text><rect x="23" y="13" width="72" height="9" fill="none" stroke="#FF9810" stroke-width="0.8"/><rect x="24" y="14" width="60.1" height="7" fill="#FF9810"/><text x="127" y="21" font-size="7" fill="#FF9810" text-anchor="end" font-family="monospace">!JAM</text><text x="6" y="33" font-size="8" fill="#0c0a07" font-family="monospace">868</text><rect x="23" y="25" width="72" height="9" fill="none" stroke="#0c0a07" stroke-width="0.8"/><rect x="24" y="26" width="14.0" height="7" fill="#0c0a07"/><text x="127" y="33" font-size="7" fill="#0c0a07" text-anchor="end" font-family="monospace">-93</text><text x="6" y="45" font-size="8" fill="#0c0a07" font-family="monospace">915</text><rect x="23" y="37" width="72" height="9" fill="none" stroke="#0c0a07" stroke-width="0.8"/><rect x="24" y="38" width="17.3" height="7" fill="#0c0a07"/><text x="127" y="45" font-size="7" fill="#0c0a07" text-anchor="end" font-family="monospace">-89</text><rect x="0" y="51" width="128" height="13" fill="#0c0a07"/><text x="64" y="61" font-size="9" font-weight="bold" fill="#FF9810" text-anchor="middle" font-family="Helvetica,Arial,sans-serif">! JAMMING 433 !</text></g><text x="1076.0" y="430" font-size="18" fill="#9fb4c8" text-anchor="middle" font-family="Helvetica,Arial,sans-serif">Meters - JAM on 433</text><rect x="1452" y="58" width="672" height="352" rx="16" fill="#1c1f26" stroke="#3a3f4b" stroke-width="2"/><g transform="translate(1468,74) scale(5)" shape-rendering="crispEdges"><rect x="0" y="0" width="128" height="64" fill="#FF9810"/><rect x="0" y="0" width="128" height="11" fill="#0c0a07"/><text x="2" y="9" font-size="9" font-weight="bold" fill="#FF9810" font-family="Helvetica,Arial,sans-serif">CERBERUS</text><text x="126" y="9" font-size="7" fill="#FF9810" text-anchor="end" font-family="monospace">SCOPE</text><circle cx="95" cy="5" r="2" fill="#FF9810"/><rect x="4" y="13" width="120" height="42" fill="none" stroke="#0c0a07" stroke-width="0.8"/><rect x="5" y="48.4" width="1" height="1" fill="#0c0a07"/><rect x="5" y="40.8" width="1" height="1" fill="#0c0a07"/><rect x="8" y="48.4" width="1" height="1" fill="#0c0a07"/><rect x="8" y="40.8" width="1" height="1" fill="#0c0a07"/><rect x="11" y="48.4" width="1" height="1" fill="#0c0a07"/><rect x="11" y="40.8" width="1" height="1" fill="#0c0a07"/><rect x="14" y="48.4" width="1" height="1" fill="#0c0a07"/><rect x="14" y="40.8" width="1" height="1" fill="#0c0a07"/><rect x="17" y="48.4" width="1" height="1" fill="#0c0a07"/><rect x="17" y="40.8" width="1" height="1" fill="#0c0a07"/><rect x="20" y="48.4" width="1" height="1" fill="#0c0a07"/><rect x="20" y="40.8" width="1" height="1" fill="#0c0a07"/><rect x="23" y="48.4" width="1" height="1" fill="#0c0a07"/><rect x="23" y="40.8" width="1" height="1" fill="#0c0a07"/><rect x="26" y="48.4" width="1" height="1" fill="#0c0a07"/><rect x="26" y="40.8" width="1" height="1" fill="#0c0a07"/><rect x="29" y="48.4" width="1" height="1" fill="#0c0a07"/><rect x="29" y="40.8" width="1" height="1" fill="#0c0a07"/><rect x="32" y="48.4" width="1" height="1" fill="#0c0a07"/><rect x="32" y="40.8" width="1" height="1" fill="#0c0a07"/><rect x="35" y="48.4" width="1" height="1" fill="#0c0a07"/><rect x="35" y="40.8" width="1" height="1" fill="#0c0a07"/><rect x="38" y="48.4" width="1" height="1" fill="#0c0a07"/><rect x="38" y="40.8" width="1" height="1" fill="#0c0a07"/><rect x="41" y="48.4" width="1" height="1" fill="#0c0a07"/><rect x="41" y="40.8" width="1" height="1" fill="#0c0a07"/><rect x="44" y="48.4" width="1" height="1" fill="#0c0a07"/><rect x="44" y="40.8" width="1" height="1" fill="#0c0a07"/><rect x="47" y="48.4" width="1" height="1" fill="#0c0a07"/><rect x="47" y="40.8" width="1" height="1" fill="#0c0a07"/><rect x="50" y="48.4" width="1" height="1" fill="#0c0a07"/><rect x="50" y="40.8" width="1" height="1" fill="#0c0a07"/><rect x="53" y="48.4" width="1" height="1" fill="#0c0a07"/><rect x="53" y="40.8" width="1" height="1" fill="#0c0a07"/><rect x="56" y="48.4" width="1" height="1" fill="#0c0a07"/><rect x="56" y="40.8" width="1" height="1" fill="#0c0a07"/><rect x="59" y="48.4" width="1" height="1" fill="#0c0a07"/><rect x="59" y="40.8" width="1" height="1" fill="#0c0a07"/><rect x="62" y="48.4" width="1" height="1" fill="#0c0a07"/><rect x="62" y="40.8" width="1" height="1" fill="#0c0a07"/><rect x="65" y="48.4" width="1" height="1" fill="#0c0a07"/><rect x="65" y="40.8" width="1" height="1" fill="#0c0a07"/><rect x="68" y="48.4" width="1" height="1" fill="#0c0a07"/><rect x="68" y="40.8" width="1" height="1" fill="#0c0a07"/><rect x="71" y="48.4" width="1" height="1" fill="#0c0a07"/><rect x="71" y="40.8" width="1" height="1" fill="#0c0a07"/><rect x="74" y="48.4" width="1" height="1" fill="#0c0a07"/><rect x="74" y="40.8" width="1" height="1" fill="#0c0a07"/><rect x="77" y="48.4" width="1" height="1" fill="#0c0a07"/><rect x="77" y="40.8" width="1" height="1" fill="#0c0a07"/><rect x="80" y="48.4" width="1" height="1" fill="#0c0a07"/><rect x="80" y="40.8" width="1" height="1" fill="#0c0a07"/><rect x="83" y="48.4" width="1" height="1" fill="#0c0a07"/><rect x="83" y="40.8" width="1" height="1" fill="#0c0a07"/><rect x="86" y="48.4" width="1" height="1" fill="#0c0a07"/><rect x="86" y="40.8" width="1" height="1" fill="#0c0a07"/><rect x="89" y="48.4" width="1" height="1" fill="#0c0a07"/><rect x="89" y="40.8" width="1" height="1" fill="#0c0a07"/><rect x="92" y="48.4" width="1" height="1" fill="#0c0a07"/><rect x="92" y="40.8" width="1" height="1" fill="#0c0a07"/><rect x="95" y="48.4" width="1" height="1" fill="#0c0a07"/><rect x="95" y="40.8" width="1" height="1" fill="#0c0a07"/><rect x="98" y="48.4" width="1" height="1" fill="#0c0a07"/><rect x="98" y="40.8" width="1" height="1" fill="#0c0a07"/><rect x="101" y="48.4" width="1" height="1" fill="#0c0a07"/><rect x="101" y="40.8" width="1" height="1" fill="#0c0a07"/><rect x="104" y="48.4" width="1" height="1" fill="#0c0a07"/><rect x="104" y="40.8" width="1" height="1" fill="#0c0a07"/><rect x="107" y="48.4" width="1" height="1" fill="#0c0a07"/><rect x="107" y="40.8" width="1" height="1" fill="#0c0a07"/><rect x="110" y="48.4" width="1" height="1" fill="#0c0a07"/><rect x="110" y="40.8" width="1" height="1" fill="#0c0a07"/><rect x="113" y="48.4" width="1" height="1" fill="#0c0a07"/><rect x="113" y="40.8" width="1" height="1" fill="#0c0a07"/><rect x="116" y="48.4" width="1" height="1" fill="#0c0a07"/><rect x="116" y="40.8" width="1" height="1" fill="#0c0a07"/><rect x="119" y="48.4" width="1" height="1" fill="#0c0a07"/><rect x="119" y="40.8" width="1" height="1" fill="#0c0a07"/><rect x="122" y="48.4" width="1" height="1" fill="#0c0a07"/><rect x="122" y="40.8" width="1" height="1" fill="#0c0a07"/><text x="107" y="39.8" font-size="7" fill="#0c0a07" font-family="monospace">thr</text><path d="M 5 41.4 L 6 41.1 L 7 43.9 L 8 45.2 L 9 45.0 L 10 44.8 L 11 45.9 L 12 45.0 L 13 44.7 L 14 44.2 L 15 46.2 L 16 45.6 L 17 46.2 L 18 44.2 L 19 44.5 L 20 46.4 L 21 43.7 L 22 40.0 L 23 40.9 L 24 44.7 L 25 46.0 L 26 46.4 L 27 45.0 L 28 46.3 L 29 45.9 L 30 45.8 L 31 46.4 L 32 45.2 L 33 45.2 L 34 44.1 L 35 45.0 L 36 44.7 L 37 45.1 L 38 44.6 L 39 41.4 L 40 41.9 L 41 43.7 L 42 43.7 L 43 44.1 L 44 44.5 L 45 45.6 L 46 45.8 L 47 45.7 L 48 46.3 L 49 44.3 L 50 45.3 L 51 44.1 L 52 45.4 L 53 43.8 L 54 44.1 L 55 46.5 L 56 42.1 L 57 40.1 L 58 45.1 L 59 43.7 L 60 45.3 L 61 46.3 L 62 44.7 L 63 44.3 L 64 45.7 L 65 46.2 L 66 45.5 L 67 43.7 L 68 44.3 L 69 46.1 L 70 45.8 L 71 46.2 L 72 46.3 L 73 40.5 L 74 42.2 L 75 44.9 L 76 45.2 L 77 45.9 L 78 44.4 L 79 46.1 L 80 44.7 L 81 46.1 L 82 45.3 L 83 45.9 L 84 45.7 L 85 43.7 L 86 44.2 L 87 45.6 L 88 44.0 L 89 37.8 L 90 38.4 L 91 39.1 L 92 39.6 L 93 39.9 L 94 39.9 L 95 39.7 L 96 39.1 L 97 38.2 L 98 37.2 L 99 36.0 L 100 34.8 L 101 33.6 L 102 32.7 L 103 31.9 L 104 31.5 L 105 31.4 L 106 31.6 L 107 32.0 L 108 32.6 L 109 33.2 L 110 33.8 L 111 34.3 L 112 34.9 L 113 35.2 L 114 35.1 L 115 34.8 L 116 34.2 L 117 33.4 L 118 32.4 L 119 31.5 L 120 30.7 L 121 30.0 L 122 29.6" fill="none" stroke="#0c0a07" stroke-width="1"/><text x="2" y="63" font-size="7" fill="#0c0a07" font-family="monospace">433  -44dBm</text><text x="127" y="63" font-size="7" fill="#0c0a07" text-anchor="end" font-family="monospace">F-98 T-82</text></g><text x="1788.0" y="430" font-size="18" fill="#9fb4c8" text-anchor="middle" font-family="Helvetica,Arial,sans-serif">Scope - watching a jam ramp</text></svg>