<svg xmlns="http://www.w3.org/2000/svg" width="1466" height="444" viewBox="0 0 1466 444" font-family="Helvetica,Arial,sans-serif"><rect width="1466" height="444" fill="#0b0e16"/><text x="733.0" y="34" font-size="24" font-weight="bold" fill="#e6f0ff" text-anchor="middle">The Watch screen</text><rect x="34" y="58" width="676" height="356" rx="16" fill="#1c1f26" stroke="#3a3f4b" stroke-width="2"/><g transform="translate(52,76) scale(5)" shape-rendering="crispEdges"><rect x="0" y="0" width="128" height="64" fill="#FF9810"/><rect x="0" y="0" width="128" height="11" fill="#0c0a07"/><text x="2" y="9" font-size="9" font-weight="bold" fill="#FF9810" font-family="Helvetica,Arial,sans-serif">CERBERUS</text><text x="126" y="9" font-size="7" fill="#FF9810" text-anchor="end" font-family="monospace">HOP</text><polygon points="0,14 3,17 0,20" fill="#0c0a07"/><text x="6" y="21" font-size="8" fill="#0c0a07" font-family="monospace">433</text><rect x="23" y="13" width="72" height="9" fill="none" stroke="#0c0a07" stroke-width="0.8"/><rect x="24" y="14" width="11.5" height="7" fill="#0c0a07"/><text x="127" y="21" font-size="7" fill="#0c0a07" text-anchor="end" font-family="monospace">-96</text><text x="6" y="33" font-size="8" fill="#0c0a07" font-family="monospace">868</text><rect x="23" y="25" width="72" height="9" fill="none" stroke="#0c0a07" stroke-width="0.8"/><rect x="24" y="26" width="15.6" height="7" fill="#0c0a07"/><text x="127" y="33" font-size="7" fill="#0c0a07" text-anchor="end" font-family="monospace">-91</text><text x="6" y="45" font-size="8" fill="#0c0a07" font-family="monospace">915</text><rect x="23" y="37" width="72" height="9" fill="none" stroke="#0c0a07" stroke-width="0.8"/><rect x="24" y="38" width="19.8" height="7" fill="#0c0a07"/><text x="127" y="45" font-size="7" fill="#0c0a07" text-anchor="end" font-family="monospace">-86</text><line x1="0" y1="50" x2="127" y2="50" stroke="#0c0a07" stroke-width="0.8"/><text x="2" y="61" font-size="7" fill="#0c0a07" font-family="monospace">UP 02:14</text><text x="127" y="61" font-size="7" fill="#0c0a07" text-anchor="end" font-family="monospace">433 0b/s</text></g><text x="372.0" y="436" font-size="20" fill="#9fb4c8" text-anchor="middle" font-family="Helvetica,Arial,sans-serif">Calm — hopping 433/868/915</text><rect x="756" y="58" width="676" height="356" rx="16" fill="#1c1f26" stroke="#3a3f4b" stroke-width="2"/><g transform="translate(774,76) scale(5)" shape-rendering="crispEdges"><rect x="0" y="0" width="128" height="64" fill="#FF9810"/><rect x="0" y="0" width="128" height="11" fill="#0c0a07"/><text x="2" y="9" font-size="9" font-weight="bold" fill="#FF9810" font-family="Helvetica,Arial,sans-serif">CERBERUS</text><text x="126" y="9" font-size="7" fill="#FF9810" text-anchor="end" font-family="monospace">PIN 433</text><rect x="0" y="12" width="128" height="12" fill="#0c0a07"/><polygon points="0,14 3,17 0,20" fill="#FF9810"/><text x="6" y="21" font-size="8" fill="#FF9810" font-family="monospace">433</text><rect x="23" y="13" width="72" height="9" fill="none" stroke="#FF9810" stroke-width="0.8"/><rect x="24" y="14" width="60.1" height="7" fill="#FF9810"/><text x="127" y="21" font-size="7" fill="#FF9810" text-anchor="end" font-family="monospace">!JAM</text><text x="6" y="33" font-size="8" fill="#0c0a07" font-family="monospace">868</text><rect x="23" y="25" width="72" height="9" fill="none" stroke="#0c0a07" stroke-width="0.8"/><rect x="24" y="26" width="14.0" height="7" fill="#0c0a07"/><text x="127" y="33" font-size="7" fill="#0c0a07" text-anchor="end" font-family="monospace">-93</text><text x="6" y="45" font-size="8" fill="#0c0a07" font-family="monospace">915</text><rect x="23" y="37" width="72" height="9" fill="none" stroke="#0c0a07" stroke-width="0.8"/><rect x="24" y="38" width="17.3" height="7" fill="#0c0a07"/><text x="127" y="45" font-size="7" fill="#0c0a07" text-anchor="end" font-family="monospace">-89</text><rect x="0" y="51" width="128" height="13" fill="#0c0a07"/><text x="64" y="61" font-size="9" font-weight="bold" fill="#FF9810" text-anchor="middle" font-family="Helvetica,Arial,sans-serif">! JAMMING 433 !</text></g><text x="1094.0" y="436" font-size="20" fill="#9fb4c8" text-anchor="middle" font-family="Helvetica,Arial,sans-serif">JAM detected on 433 MHz</text></svg>